<svg width="3285" height="1941" viewBox="0 0 3285 1941" fill="none" xmlns="http://www.w3.org/2000/svg">
<g filter="url(#filter0_f_8_8)">
<path d="M5 1612.82L256 1498.3L532 1664L810 1428.67L1088 1334.7L1359 1528.93L1637 1260.87L1910 1289.4L2181 1158.52L2461.5 1289.4L2732.5 1044L3005.5 1230.25L3279 1209.7" stroke="url(#paint0_linear_8_8)" stroke-width="3"/>
</g>
<path d="M9 1545.2L246.072 1656L538.662 1438.6L812.245 1545.2L1082.83 1577.94L1361.41 1387.4L1637 1516.66L1915.08 1402.09L2183.66 1438.6L2454.25 1070.11L2732.83 1342.49L3010.92 1049.54L3284 974" stroke="url(#paint1_linear_8_8)" stroke-width="3"/>
<path d="M529 1664.39L673.026 1732L812.051 1627.44L1107.11 1705.54L1358.65 1594.68L1634.2 1627.44L1909.75 1732L2185.8 1559.83L2468.85 1475.84L2732.4 1535.47L3000.45 1357L3279 1438.89" stroke="url(#paint2_linear_8_8)" stroke-width="3"/>
<path d="M9 1941V1279.25L3279 311V1941H9Z" fill="url(#paint3_linear_8_8)"/>
<defs>
<filter id="filter0_f_8_8" x="0.377319" y="1038.09" width="3282.74" height="631.744" filterUnits="userSpaceOnUse" color-interpolation-filters="sRGB">
<feFlood flood-opacity="0" result="BackgroundImageFix"/>
<feBlend mode="normal" in="SourceGraphic" in2="BackgroundImageFix" result="shape"/>
<feGaussianBlur stdDeviation="2" result="effect1_foregroundBlur_8_8"/>
</filter>
<linearGradient id="paint0_linear_8_8" x1="178" y1="1475.65" x2="3152.98" y2="869.636" gradientUnits="userSpaceOnUse">
<stop stop-color="#E8F5E9"/>
<stop offset="1" stop-color="#2E7D32"/>
</linearGradient>
<linearGradient id="paint1_linear_8_8" x1="182.053" y1="1448.82" x2="3178.6" y2="893.729" gradientUnits="userSpaceOnUse">
<stop stop-color="#E8F5E9"/>
<stop offset="1" stop-color="#2E7D32"/>
</linearGradient>
<linearGradient id="paint2_linear_8_8" x1="674.312" y1="1618.08" x2="3084" y2="936.407" gradientUnits="userSpaceOnUse">
<stop stop-color="#E8F5E9"/>
<stop offset="1" stop-color="#2E7D32"/>
</linearGradient>
<linearGradient id="paint3_linear_8_8" x1="1644.25" y1="1203.69" x2="1643.75" y2="1941" gradientUnits="userSpaceOnUse">
<stop stop-color="#D9D9D9" stop-opacity="0"/>
<stop offset="1" stop-color="#9DCE9F" stop-opacity="0.31"/>
</linearGradient>
</defs>
</svg>
